<svg width="40" height="40" viewBox="0 0 40 40" fill="none" xmlns="http://www.w3.org/2000/svg">
<path d="M34.1337 7.63375L37.5 4.2675L35.7325 2.5L32.3662 5.86625L31 4.5C30.7743 4.26295 30.5028 4.07422 30.202 3.94526C29.9012 3.81631 29.5773 3.74981 29.25 3.74981C28.9227 3.74981 28.5988 3.81631 28.298 3.94526C27.9972 4.07422 27.7257 4.26295 27.5 4.5L5 27V35H13L35.5 12.5C35.737 12.2743 35.9258 12.0028 36.0547 11.702C36.1837 11.4012 36.2502 11.0773 36.2502 10.75C36.2502 10.4227 36.1837 10.0988 36.0547 9.79799C35.9258 9.49717 35.737 9.22568 35.5 9L34.1337 7.63375ZM12 32.5H7.5V28L29.25 6.25L33.75 10.75L12 32.5ZM11.25 14.4825L20.7325 5L22.5 6.7675L13.0175 16.25L11.25 14.4825Z" fill="#252528"/>
</svg>
