<svg width="40" height="40" viewBox="0 0 40 40" fill="none" xmlns="http://www.w3.org/2000/svg">
<path d="M29.9999 21.6634H21.6666V29.9967C21.6666 30.4388 21.491 30.8627 21.1784 31.1753C20.8659 31.4878 20.4419 31.6634 19.9999 31.6634C19.5579 31.6634 19.134 31.4878 18.8214 31.1753C18.5088 30.8627 18.3333 30.4388 18.3333 29.9967V21.6634H9.99992C9.55789 21.6634 9.13397 21.4878 8.82141 21.1753C8.50885 20.8627 8.33325 20.4388 8.33325 19.9967C8.33325 19.5547 8.50885 19.1308 8.82141 18.8182C9.13397 18.5057 9.55789 18.3301 9.99992 18.3301H18.3333V9.99674C18.3333 9.55472 18.5088 9.13079 18.8214 8.81823C19.134 8.50567 19.5579 8.33008 19.9999 8.33008C20.4419 8.33008 20.8659 8.50567 21.1784 8.81823C21.491 9.13079 21.6666 9.55472 21.6666 9.99674V18.3301H29.9999C30.4419 18.3301 30.8659 18.5057 31.1784 18.8182C31.491 19.1308 31.6666 19.5547 31.6666 19.9967C31.6666 20.4388 31.491 20.8627 31.1784 21.1753C30.8659 21.4878 30.4419 21.6634 29.9999 21.6634Z" fill="#252528"/>
</svg>
