<svg width="40" height="40" viewBox="0 0 40 40" fill="none" xmlns="http://www.w3.org/2000/svg">
<path d="M14.9999 26.9504L9.21658 21.167C8.90495 20.8554 8.48229 20.6803 8.04158 20.6803C7.60087 20.6803 7.17821 20.8554 6.86658 21.167C6.55495 21.4787 6.37988 21.9013 6.37988 22.342C6.37988 22.5603 6.42286 22.7763 6.50637 22.9779C6.58988 23.1796 6.71228 23.3627 6.86658 23.517L13.8333 30.4837C14.4833 31.1337 15.5333 31.1337 16.1833 30.4837L33.8166 12.8504C34.1282 12.5387 34.3033 12.1161 34.3033 11.6754C34.3033 11.2347 34.1282 10.812 33.8166 10.5004C33.505 10.1887 33.0823 10.0137 32.6416 10.0137C32.2009 10.0137 31.7782 10.1887 31.4666 10.5004L14.9999 26.9504Z" fill="#252528"/>
</svg>
